<mxfile host="app.diagrams.net" modified="2021-02-04T17:30:28.961Z" agent="5.0 (Windows NT 10.0; Win64; x64) AppleWebKit/537.36 (KHTML, like Gecko) Chrome/88.0.4324.96 Safari/537.36 Edg/88.0.705.56" etag="lYk96v4BleAensz-1l1F" version="14.2.9" type="github">
  <diagram id="C5RBs43oDa-KdzZeNtuy" name="Page-1">
    <mxGraphModel dx="868" dy="482" grid="1" gridSize="10" guides="1" tooltips="1" connect="1" arrows="1" fold="1" page="0" pageScale="1" pageWidth="827" pageHeight="1169" math="0" shadow="0">
      <root>
        <mxCell id="WIyWlLk6GJQsqaUBKTNV-0" />
        <mxCell id="WIyWlLk6GJQsqaUBKTNV-1" parent="WIyWlLk6GJQsqaUBKTNV-0" />
        <mxCell id="YeJPbqonlaDgZHrQWHC3-2" value="Alunos" style="rounded=0;whiteSpace=wrap;html=1;" parent="WIyWlLk6GJQsqaUBKTNV-1" vertex="1">
          <mxGeometry x="350" y="220" width="120" height="60" as="geometry" />
        </mxCell>
        <mxCell id="YeJPbqonlaDgZHrQWHC3-3" value="" style="endArrow=none;html=1;" parent="WIyWlLk6GJQsqaUBKTNV-1" target="YeJPbqonlaDgZHrQWHC3-4" edge="1">
          <mxGeometry width="50" height="50" relative="1" as="geometry">
            <mxPoint x="430" y="220" as="sourcePoint" />
            <mxPoint x="480" y="170" as="targetPoint" />
          </mxGeometry>
        </mxCell>
        <mxCell id="YeJPbqonlaDgZHrQWHC3-4" value="&lt;u&gt;Id&lt;/u&gt;" style="ellipse;whiteSpace=wrap;html=1;" parent="WIyWlLk6GJQsqaUBKTNV-1" vertex="1">
          <mxGeometry x="420" y="130" width="100" height="50" as="geometry" />
        </mxCell>
        <mxCell id="YeJPbqonlaDgZHrQWHC3-5" value="" style="endArrow=none;html=1;" parent="WIyWlLk6GJQsqaUBKTNV-1" target="YeJPbqonlaDgZHrQWHC3-6" edge="1">
          <mxGeometry width="50" height="50" relative="1" as="geometry">
            <mxPoint x="470" y="240" as="sourcePoint" />
            <mxPoint x="520" y="220" as="targetPoint" />
          </mxGeometry>
        </mxCell>
        <mxCell id="YeJPbqonlaDgZHrQWHC3-6" value="Nome" style="ellipse;whiteSpace=wrap;html=1;" parent="WIyWlLk6GJQsqaUBKTNV-1" vertex="1">
          <mxGeometry x="520" y="170" width="90" height="60" as="geometry" />
        </mxCell>
        <mxCell id="YeJPbqonlaDgZHrQWHC3-7" value="" style="endArrow=none;html=1;exitX=1;exitY=1;exitDx=0;exitDy=0;" parent="WIyWlLk6GJQsqaUBKTNV-1" source="YeJPbqonlaDgZHrQWHC3-2" target="YeJPbqonlaDgZHrQWHC3-8" edge="1">
          <mxGeometry width="50" height="50" relative="1" as="geometry">
            <mxPoint x="420" y="340" as="sourcePoint" />
            <mxPoint x="420" y="280" as="targetPoint" />
            <Array as="points" />
          </mxGeometry>
        </mxCell>
        <mxCell id="YeJPbqonlaDgZHrQWHC3-8" value="e-mail" style="ellipse;whiteSpace=wrap;html=1;" parent="WIyWlLk6GJQsqaUBKTNV-1" vertex="1">
          <mxGeometry x="530" y="310" width="100" height="70" as="geometry" />
        </mxCell>
        <mxCell id="YeJPbqonlaDgZHrQWHC3-9" value="" style="endArrow=none;html=1;" parent="WIyWlLk6GJQsqaUBKTNV-1" target="YeJPbqonlaDgZHrQWHC3-10" edge="1">
          <mxGeometry width="50" height="50" relative="1" as="geometry">
            <mxPoint x="360" y="220" as="sourcePoint" />
            <mxPoint x="340" y="160" as="targetPoint" />
            <Array as="points">
              <mxPoint x="340" y="180" />
            </Array>
          </mxGeometry>
        </mxCell>
        <mxCell id="YeJPbqonlaDgZHrQWHC3-10" value="Password" style="ellipse;whiteSpace=wrap;html=1;" parent="WIyWlLk6GJQsqaUBKTNV-1" vertex="1">
          <mxGeometry x="250" y="70" width="100" height="60" as="geometry" />
        </mxCell>
        <mxCell id="YeJPbqonlaDgZHrQWHC3-11" value="" style="endArrow=none;html=1;" parent="WIyWlLk6GJQsqaUBKTNV-1" edge="1">
          <mxGeometry width="50" height="50" relative="1" as="geometry">
            <mxPoint x="250" y="230" as="sourcePoint" />
            <mxPoint x="350" y="240" as="targetPoint" />
          </mxGeometry>
        </mxCell>
        <mxCell id="YeJPbqonlaDgZHrQWHC3-16" value="Instrumento?" style="ellipse;whiteSpace=wrap;html=1;" parent="WIyWlLk6GJQsqaUBKTNV-1" vertex="1">
          <mxGeometry x="150" y="190" width="100" height="70" as="geometry" />
        </mxCell>
        <mxCell id="YeJPbqonlaDgZHrQWHC3-17" value="" style="endArrow=none;html=1;exitX=0.942;exitY=0.238;exitDx=0;exitDy=0;exitPerimeter=0;" parent="WIyWlLk6GJQsqaUBKTNV-1" source="YeJPbqonlaDgZHrQWHC3-23" edge="1">
          <mxGeometry width="50" height="50" relative="1" as="geometry">
            <mxPoint x="300" y="320" as="sourcePoint" />
            <mxPoint x="350" y="270" as="targetPoint" />
          </mxGeometry>
        </mxCell>
        <mxCell id="YeJPbqonlaDgZHrQWHC3-18" value="Telefone?" style="ellipse;whiteSpace=wrap;html=1;perimeterSpacing=0;shadow=0;sketch=0;strokeWidth=1;gradientDirection=east;" parent="WIyWlLk6GJQsqaUBKTNV-1" vertex="1">
          <mxGeometry x="200" y="300" width="110" height="70" as="geometry" />
        </mxCell>
        <mxCell id="YeJPbqonlaDgZHrQWHC3-23" value="" style="ellipse;whiteSpace=wrap;html=1;rounded=0;sketch=0;fillColor=none;" parent="WIyWlLk6GJQsqaUBKTNV-1" vertex="1">
          <mxGeometry x="195" y="295" width="120" height="80" as="geometry" />
        </mxCell>
        <mxCell id="YeJPbqonlaDgZHrQWHC3-24" value="" style="endArrow=none;html=1;entryX=0.5;entryY=1;entryDx=0;entryDy=0;" parent="WIyWlLk6GJQsqaUBKTNV-1" target="YeJPbqonlaDgZHrQWHC3-2" edge="1">
          <mxGeometry width="50" height="50" relative="1" as="geometry">
            <mxPoint x="380" y="360" as="sourcePoint" />
            <mxPoint x="410" y="280" as="targetPoint" />
            <Array as="points" />
          </mxGeometry>
        </mxCell>
        <mxCell id="YeJPbqonlaDgZHrQWHC3-25" value="DataNasc" style="ellipse;whiteSpace=wrap;html=1;rounded=0;sketch=0;" parent="WIyWlLk6GJQsqaUBKTNV-1" vertex="1">
          <mxGeometry x="310" y="360" width="110" height="60" as="geometry" />
        </mxCell>
        <mxCell id="YeJPbqonlaDgZHrQWHC3-26" value="Idade" style="ellipse;whiteSpace=wrap;html=1;rounded=0;sketch=0;dashed=1;" parent="WIyWlLk6GJQsqaUBKTNV-1" vertex="1">
          <mxGeometry x="450" y="380" width="100" height="60" as="geometry" />
        </mxCell>
        <mxCell id="YeJPbqonlaDgZHrQWHC3-27" value="" style="endArrow=none;dashed=1;html=1;exitX=0.41;exitY=-0.017;exitDx=0;exitDy=0;exitPerimeter=0;" parent="WIyWlLk6GJQsqaUBKTNV-1" source="YeJPbqonlaDgZHrQWHC3-26" edge="1">
          <mxGeometry width="50" height="50" relative="1" as="geometry">
            <mxPoint x="400" y="330" as="sourcePoint" />
            <mxPoint x="450" y="280" as="targetPoint" />
          </mxGeometry>
        </mxCell>
        <mxCell id="QPZrH0Ajvc4-a-Q5nBBF-0" value="Professores" style="rounded=0;whiteSpace=wrap;html=1;" vertex="1" parent="WIyWlLk6GJQsqaUBKTNV-1">
          <mxGeometry x="970" y="210" width="120" height="60" as="geometry" />
        </mxCell>
        <mxCell id="QPZrH0Ajvc4-a-Q5nBBF-17" value="" style="endArrow=none;html=1;" edge="1" parent="WIyWlLk6GJQsqaUBKTNV-1">
          <mxGeometry width="50" height="50" relative="1" as="geometry">
            <mxPoint x="920" y="320" as="sourcePoint" />
            <mxPoint x="970" y="270" as="targetPoint" />
          </mxGeometry>
        </mxCell>
        <mxCell id="QPZrH0Ajvc4-a-Q5nBBF-19" value="&lt;u&gt;Id&lt;/u&gt;" style="ellipse;whiteSpace=wrap;html=1;" vertex="1" parent="WIyWlLk6GJQsqaUBKTNV-1">
          <mxGeometry x="870" y="310" width="70" height="70" as="geometry" />
        </mxCell>
        <mxCell id="QPZrH0Ajvc4-a-Q5nBBF-20" value="Nome" style="ellipse;whiteSpace=wrap;html=1;" vertex="1" parent="WIyWlLk6GJQsqaUBKTNV-1">
          <mxGeometry x="1000" y="320" width="100" height="50" as="geometry" />
        </mxCell>
        <mxCell id="QPZrH0Ajvc4-a-Q5nBBF-21" value="" style="endArrow=none;html=1;" edge="1" parent="WIyWlLk6GJQsqaUBKTNV-1" source="QPZrH0Ajvc4-a-Q5nBBF-20">
          <mxGeometry width="50" height="50" relative="1" as="geometry">
            <mxPoint x="990" y="320" as="sourcePoint" />
            <mxPoint x="1040" y="270" as="targetPoint" />
          </mxGeometry>
        </mxCell>
        <mxCell id="QPZrH0Ajvc4-a-Q5nBBF-22" value="e-mail" style="ellipse;whiteSpace=wrap;html=1;" vertex="1" parent="WIyWlLk6GJQsqaUBKTNV-1">
          <mxGeometry x="1120" y="280" width="100" height="70" as="geometry" />
        </mxCell>
        <mxCell id="QPZrH0Ajvc4-a-Q5nBBF-23" value="" style="endArrow=none;html=1;entryX=0;entryY=0;entryDx=0;entryDy=0;" edge="1" parent="WIyWlLk6GJQsqaUBKTNV-1" target="QPZrH0Ajvc4-a-Q5nBBF-22">
          <mxGeometry width="50" height="50" relative="1" as="geometry">
            <mxPoint x="1090" y="265" as="sourcePoint" />
            <mxPoint x="1140" y="215" as="targetPoint" />
          </mxGeometry>
        </mxCell>
      </root>
    </mxGraphModel>
  </diagram>
</mxfile>
